<svg xmlns="http://www.w3.org/2000/svg" width="20.136" height="14.883" viewBox="0 0 20.136 14.883">
  <defs>
    <style>
      .cls-1 {
        fill: #fff;
      }
    </style>
  </defs>
  <g id="wind_1_" data-name="wind (1)" transform="translate(0 -2.04)">
    <path id="Path_49" data-name="Path 49" class="cls-1" d="M10.635,9.353H2.524v1.18h8.111a1.645,1.645,0,0,1,1.643,1.643,1.465,1.465,0,0,1-1.463,1.463,1.3,1.3,0,0,1-1.3-1.3H8.338a2.48,2.48,0,0,0,2.477,2.477,2.646,2.646,0,0,0,2.643-2.643A2.826,2.826,0,0,0,10.635,9.353Z" transform="translate(0.726 2.104)"/>
    <path id="Path_50" data-name="Path 50" class="cls-1" d="M16.138,2.04a3.728,3.728,0,0,0-3.724,3.724h1.18A2.547,2.547,0,0,1,16.138,3.22a2.822,2.822,0,0,1,2.819,2.819,3.121,3.121,0,0,1-3.118,3.118H0v1.18H15.839a4.3,4.3,0,0,0,4.3-4.3A4,4,0,0,0,16.138,2.04Z"/>
    <path id="Path_51" data-name="Path 51" class="cls-1" d="M8.551,3.128A2.1,2.1,0,0,0,6.458,5.221h1.18a.914.914,0,0,1,.913-.913A1.046,1.046,0,0,1,9.6,5.353,1.189,1.189,0,0,1,8.408,6.541H2.524v1.18H8.408a2.371,2.371,0,0,0,2.368-2.368A2.227,2.227,0,0,0,8.551,3.128Z" transform="translate(0.726 0.313)"/>
  </g>
</svg>
